<svg viewBox="0 0 24 24" fill="none" xmlns="http://www.w3.org/2000/svg">
  <path
    d="m21.686 2.956-.836-.889a.207.207 0 0 0-.274-.028l-1.255.888c-.006.004-.008.01-.014.015-.006.005-.013.007-.02.014l-1.106 1.173a.777.777 0 0 0-1.087.027l-4.974 5.08-.218-.233a.771.771 0 0 0-.828-.207c-.035.02-1.014.338-.993.377l-1.674 1.776c-.2.212-.2.557 0 .77l.265.28-.321.342-.474-.504a.492.492 0 0 0-.725 0L5.896 13.17c-.314.32-.314.894 0 1.213l.265.282-2.985 3.168c-.236.246-.177.64.074.848l-.706.963a1.556 1.556 0 0 0 .115 1.963c.147.136.328.411.46.393.186.007.292-.255.154-.392l-.307-.326a1.075 1.075 0 0 1-.08-1.356l.673-.918.51.542-.475.503a.237.237 0 0 0-.063.163c-.015.141.23.32.329.444l-.266.282a.24.24 0 0 0 0 .325c.085.09.222.09.307 0l.265-.282c.117.106.285.365.419.35a.21.21 0 0 0 .153-.068l.474-.504.894.948c.1.106.23.159.362.159a.496.496 0 0 0 .362-.16l2.986-3.167.265.281a.78.78 0 0 0 1.144 0l1.255-1.332c.2-.212.2-.557 0-.77l-.475-.503.322-.34.265.28c.19.212.534.212.725 0l1.674-1.776c.036.023.337-1.017.355-1.053a.89.89 0 0 0-.195-.878l-.219-.232 4.786-5.278a.9.9 0 0 0 .025-1.154l1.107-1.174c.008-.013.015-.025.027-.035l.837-1.332a.24.24 0 0 0-.027-.29ZM8.333 19.465 4.911 16.64l.528-.56 3.422 2.823-.528.56Zm-.837.888-3.422-2.824.529-.56 3.421 2.824-.528.56Zm-2.59.084-.321.341-.53-.563.32-.341.53.563Zm1.618.948a.076.076 0 0 1-.112 0l-1.884-2-1.046-1.109a.088.088 0 0 1 0-.119l.283-.3 3.422 2.824-.663.704Zm2.646-2.808-3.422-2.824.72-.764 3.041 3.228-.339.36Zm3.004-1.411-1.256 1.332a.368.368 0 0 1-.53 0l-4.185-4.44a.408.408 0 0 1-.11-.282c0-.106.039-.206.11-.282l1.255-1.332a.076.076 0 0 1 .112 0l.628.666 3.976 4.219c.03.033.03.086 0 .119Zm-.475-1.273-3.042-3.227.322-.341 3.041 3.227-.321.341Zm6.415-7.847-2.062-2.188.54-.552 2.043 2.167-.52.573Zm-5.104 7.788c-.04.043-.071.042-.112 0l-4.185-4.441a.088.088 0 0 1 0-.119l1.521-1.614 4.297 4.56-1.52 1.614Zm1.925-2.65-.192.61-4.108-4.358.576-.204a.358.358 0 0 1 .384.096l.369.391 2.511 2.665.37.392a.414.414 0 0 1 .09.407ZM12.427 9.56l3.313-3.383 2.074 2.2-3.188 3.516-2.2-2.333Zm6.979-2.938-.47.52-2.03-2.155.488-.5a.362.362 0 0 1 .525.006l.741.786.74.786a.418.418 0 0 1 .006.557Zm.035-1.165-.95-1.007.95-1.007.949 1.007-.949 1.007Zm1.222-1.368-.882-.935.888-.628.585.621-.591.942Z"
    fill="currentColor"/>

  <path
    d="m21.686 2.956-.836-.889a.207.207 0 0 0-.274-.028l-1.255.888c-.006.004-.008.01-.014.015-.006.005-.013.007-.02.014l-1.106 1.173a.777.777 0 0 0-1.087.027l-4.974 5.08-.218-.233a.771.771 0 0 0-.828-.207c-.035.02-1.014.338-.993.377l-1.674 1.776c-.2.212-.2.557 0 .77l.265.28-.321.342-.474-.504a.492.492 0 0 0-.725 0L5.896 13.17c-.314.32-.314.894 0 1.213l.265.282-2.985 3.168c-.236.246-.177.64.074.848l-.706.963a1.556 1.556 0 0 0 .115 1.963c.147.136.328.411.46.393.186.007.292-.255.154-.392l-.307-.326a1.075 1.075 0 0 1-.08-1.356l.673-.918.51.542-.475.503a.237.237 0 0 0-.063.163c-.015.141.23.32.329.444l-.266.282a.24.24 0 0 0 0 .325c.085.09.222.09.307 0l.265-.282c.117.106.285.365.419.35a.21.21 0 0 0 .153-.068l.474-.504.894.948c.1.106.23.159.362.159a.496.496 0 0 0 .362-.16l2.986-3.167.265.281a.78.78 0 0 0 1.144 0l1.255-1.332c.2-.212.2-.557 0-.77l-.475-.503.322-.34.265.28c.19.212.534.212.725 0l1.674-1.776c.036.023.337-1.017.355-1.053a.89.89 0 0 0-.195-.878l-.219-.232 4.786-5.278a.9.9 0 0 0 .025-1.154l1.107-1.174c.008-.013.015-.025.027-.035l.837-1.332a.24.24 0 0 0-.027-.29ZM8.333 19.465 4.911 16.64l.528-.56 3.422 2.823-.528.56Zm-.837.888-3.422-2.824.529-.56 3.421 2.824-.528.56Zm-2.59.084-.321.341-.53-.563.32-.341.53.563Zm1.618.948a.076.076 0 0 1-.112 0l-1.884-2-1.046-1.109a.088.088 0 0 1 0-.119l.283-.3 3.422 2.824-.663.704Zm2.646-2.808-3.422-2.824.72-.764 3.041 3.228-.339.36Zm3.004-1.411-1.256 1.332a.368.368 0 0 1-.53 0l-4.185-4.44a.408.408 0 0 1-.11-.282c0-.106.039-.206.11-.282l1.255-1.332a.076.076 0 0 1 .112 0l.628.666 3.976 4.219c.03.033.03.086 0 .119Zm-.475-1.273-3.042-3.227.322-.341 3.041 3.227-.321.341Zm6.415-7.847-2.062-2.188.54-.552 2.043 2.167-.52.573Zm-5.104 7.788c-.04.043-.071.042-.112 0l-4.185-4.441a.088.088 0 0 1 0-.119l1.521-1.614 4.297 4.56-1.52 1.614Zm1.925-2.65-.192.61-4.108-4.358.576-.204a.358.358 0 0 1 .384.096l.369.391 2.511 2.665.37.392a.414.414 0 0 1 .09.407ZM12.427 9.56l3.313-3.383 2.074 2.2-3.188 3.516-2.2-2.333Zm6.979-2.938-.47.52-2.03-2.155.488-.5a.362.362 0 0 1 .525.006l.741.786.74.786a.418.418 0 0 1 .006.557Zm.035-1.165-.95-1.007.95-1.007.949 1.007-.949 1.007Zm1.222-1.368-.882-.935.888-.628.585.621-.591.942Z"
    stroke="currentColor" stroke-width=".2" mask="url(#a)"/>

  <path
    d="M12.222 14.559a.21.21 0 0 0 .153-.068l.837-.888a.24.24 0 0 0 0-.325.208.208 0 0 0-.306 0l-.837.888c-.138.137-.032.4.153.393ZM9.977 12.273c.084.09.221.09.306 0l.837-.888a.24.24 0 0 0 0-.325.208.208 0 0 0-.307 0l-.836.887a.24.24 0 0 0 0 .326Z"
    fill="currentColor"/>
</svg>