<svg width="24" height="24" viewBox="0 0 24 24" fill="none"
     xmlns="http://www.w3.org/2000/svg">
  <path
    d="M3.83167 9.72501L3.82945 9.72511C3.06175 9.72506 2.45 9.07649 2.45 8.2841V3.39071C2.45 2.59879 3.06225 1.95 3.81971 1.95H3.82194L3.82194 1.95005L15.0693 2.45082L15.0693 2.45083L15.0671 2.50078C15.1941 2.50628 15.2946 2.61665 15.2946 2.75079L3.83167 9.72501ZM3.83167 9.72501L5.32066 9.65875L4.68888 16.194H3.66369C3.11473 16.194 2.67276 16.6636 2.67276 17.2355V21.7497C2.67276 21.913 2.79884 22.05 2.96025 22.05H13.2612C13.4227 22.05 13.5487 21.913 13.5487 21.7497V17.2355C13.5487 16.6636 13.1068 16.194 12.5578 16.194H11.6114L11.211 12.096C11.8266 12.0254 12.3031 11.6641 12.6349 11.1549C12.9677 10.6442 13.1564 9.98281 13.1975 9.30756L15.0693 9.22424L3.83167 9.72501ZM18.6153 4.81415V4.76415H19.5052C19.677 4.7639 19.8168 4.91106 19.8168 5.0925V6.58356C19.8168 6.76475 19.677 6.91216 19.5052 6.91216H18.6153V6.86216M18.6153 4.81415H18.5653V6.86216H18.6153M18.6153 4.81415V6.86216M18.6153 4.81415H19.5052H19.5053C19.6469 4.81395 19.7668 4.93615 19.7668 5.0925V6.58356C19.7668 6.73966 19.6469 6.86216 19.5052 6.86216H18.6153M17.2292 2.88849H15.3446L15.0693 9.22423C15.2254 9.21744 15.3446 9.08279 15.3446 8.92427V8.78657H17.2292C17.9529 8.78657 18.5435 8.20148 18.6078 7.46218H19.5052C19.969 7.46218 20.3418 7.0654 20.3418 6.58306V6.13779H21.2615C21.4229 6.13779 21.549 6.00075 21.549 5.83753C21.549 5.6743 21.4229 5.53727 21.2615 5.53727H20.3418V5.092C20.3418 4.60966 19.969 4.21288 19.5052 4.21288H18.6078C18.5435 3.47381 17.9529 2.88849 17.2292 2.88849ZM17.1792 3.48926V3.48951H17.2292C17.6739 3.48951 18.0403 3.87157 18.0403 4.34671V7.32885C18.0403 7.80399 17.6739 8.18605 17.2292 8.18605H15.3446V7.70219H16.8829C17.0443 7.70219 17.1704 7.56515 17.1704 7.40192C17.1704 7.2387 17.0443 7.10166 16.8829 7.10166H15.3446V6.65934H16.8829C17.0443 6.65934 17.1704 6.5223 17.1704 6.35908C17.1704 6.19585 17.0443 6.05881 16.8829 6.05881H15.3446V5.61649H16.8829C17.0443 5.61649 17.1704 5.47946 17.1704 5.31623C17.1704 5.15301 17.0443 5.01597 16.8829 5.01597H15.3446V4.57365H16.8829C17.0443 4.57365 17.1704 4.43661 17.1704 4.27339C17.1704 4.11016 17.0443 3.97312 16.8829 3.97312H15.3446V3.48926H17.1792ZM3.24774 21.4495V18.6402H12.9738V21.4495H3.24774ZM12.9738 17.2355V18.0396H3.24774V17.2355C3.24774 16.9898 3.43678 16.7945 3.66369 16.7945H12.5578C12.7849 16.7945 12.9738 16.9898 12.9738 17.2355ZM10.3727 9.43356L11.0336 16.194H5.26693L5.90104 9.63273L10.3727 9.43356ZM12.1824 10.7821C11.9349 11.1753 11.59 11.4446 11.1526 11.4986L10.9482 9.40783L12.62 9.33334C12.5791 9.87037 12.431 10.3873 12.1824 10.7821ZM3.02497 3.39121C3.02497 2.92557 3.3838 2.55166 3.80866 2.55078L14.7696 3.03886V8.6367L3.81862 9.12453C3.38345 9.12391 3.02497 8.74961 3.02497 8.28435V3.39121Z"
    fill="currentColor" stroke="currentColor" stroke-width="0.1"/>

</svg>
