<svg viewBox="0 0 24 24" fill="none" xmlns="http://www.w3.org/2000/svg">
  <path
    d="M20.506 2H3.496a.92.92 0 0 0-.669.293A1.031 1.031 0 0 0 2.55 3v18c0 .265.1.52.277.707a.92.92 0 0 0 .668.293h17.011a.92.92 0 0 0 .668-.293c.178-.188.277-.442.277-.707V3c0-.265-.1-.52-.277-.707A.92.92 0 0 0 20.506 2Zm-2.52 19.333h-.63V8.667a.343.343 0 0 0-.092-.236.307.307 0 0 0-.223-.098H6.961a.307.307 0 0 0-.223.098.343.343 0 0 0-.093.236v12.666h-.63V8c0-.088.034-.173.093-.236a.307.307 0 0 1 .222-.097h11.341c.084 0 .164.035.223.097.059.063.092.148.092.236v13.333ZM12.316 9h4.41v12.333h-4.41V9Zm-.63 12.333h-4.41V9h4.41v12.333ZM20.82 21a.344.344 0 0 1-.092.236.307.307 0 0 1-.223.097h-1.89V8c0-.265-.1-.52-.277-.707A.92.92 0 0 0 17.671 7H6.331a.92.92 0 0 0-.669.293A1.031 1.031 0 0 0 5.385 8v13.333h-1.89a.307.307 0 0 1-.223-.097A.344.344 0 0 1 3.18 21V3c0-.088.033-.173.092-.236a.307.307 0 0 1 .223-.097h17.011c.084 0 .164.035.223.097.06.063.092.148.092.236v18ZM9.751 3.828a.334.334 0 0 0-.118-.11.313.313 0 0 0-.305 0 .334.334 0 0 0-.118.11l-.945 1.667a.348.348 0 0 0 .112.46c.048.03.103.045.159.045h1.89c.055 0 .11-.016.158-.045a.325.325 0 0 0 .116-.124.35.35 0 0 0-.004-.336L9.75 3.828Zm-.66 1.505.39-.685.388.685h-.777Zm6.375-1.666h-1.89a.302.302 0 0 0-.159.045.325.325 0 0 0-.115.124.348.348 0 0 0 .004.336l.945 1.666c.028.05.067.09.115.119a.302.302 0 0 0 .31 0 .325.325 0 0 0 .115-.119l.945-1.666a.348.348 0 0 0-.111-.46.302.302 0 0 0-.159-.045Zm-.945 1.352-.389-.686h.778l-.389.686Z"
    fill="currentColor"/>
</svg>