<svg viewBox="0 0 24 24" fill="none" xmlns="http://www.w3.org/2000/svg">
  <path
    d="m5.191 18.363-2.043-1.146a.297.297 0 0 1-.152-.26v-2.442a.298.298 0 0 1 .456-.251l2.044 1.146a.297.297 0 0 1 .152.26v2.442a.298.298 0 0 1-.457.25Zm11.055-5.308a.198.198 0 0 1-.06.39c-.003 0-1.043-.156-1.455-.865-.21-.36-.299-.8-.25-1.23.046-.405.213-.801.518-1.112l.248-.251c.645-.65.834-.84 1.023-1.94a.198.198 0 0 1 .28-.146c.827.345 1.631 1.021 2.138 1.81.25.39.43.811.507 1.236.077.434.047.87-.124 1.283-.181.438-.52.844-1.053 1.187a.198.198 0 0 1-.214-.333c.46-.296.75-.64.901-1.006.141-.339.165-.7.1-1.061a3.044 3.044 0 0 0-.45-1.092 4.53 4.53 0 0 0-1.74-1.56c-.198 1.005-.425 1.234-1.088 1.9l-.246.25c-.239.244-.37.557-.406.879-.04.346.031.7.198.988.317.544 1.17.673 1.173.673Zm.143-.782a.198.198 0 1 1-.235.318c-.307-.229-.5-.53-.54-.887-.035-.321.057-.681.306-1.067a.198.198 0 0 1 .327-.008l.043.069c.074.124.269.452.36.434.36-.072.202-.952.138-1.303l-.015-.083a.198.198 0 0 1 .334-.174l.002.002c.52.456 1.58 1.386.586 2.963a.198.198 0 0 1-.335-.21c.598-.949.277-1.621-.108-2.064.05.517.012 1.15-.524 1.258-.255.05-.478-.178-.628-.386-.081.192-.11.368-.092.527.027.241.163.449.381.61Zm-6.492 9.132 9.329-5.233v-1.755l-8.691 4.87v.344a.297.297 0 0 1-.143.254l-.495.348v1.172ZM11.08 18.3l8.285-4.648a.3.3 0 0 1 .068-.031l2.883-1.616c.499-.303.837-.886.985-1.63.162-.816.096-1.814-.234-2.853a8.45 8.45 0 0 0-1.824-3.12l-11.949 6.67a9.055 9.055 0 0 1 1.842 3.221c.32 1.008.41 1.955.3 2.776-.06.45-.18.864-.356 1.23Zm8.742-4.216v2.262a.297.297 0 0 1-.152.26l-9.91 5.558-.004.002-.002.002-.005.002-.001.001-.005.003H9.74l-.004.003h-.001l-.006.003h-.001l-.005.003-.002.001-.005.002h-.001l-.006.003-.006.003H9.7l-.005.002h-.001a.142.142 0 0 1-.013.004H9.68l-.006.003-.007.001-.007.002H9.66l-.006.001h-.001l-.007.002h-.007l-.007.001H9.63l-.007.001h-.016l-.007.001h-.016a.16.16 0 0 1-.007 0l-.007-.002h-.008l-.008-.001a.13.13 0 0 1-.007-.002H9.54l-.001-.001-.006-.002h-.001l-.007-.001a1.87 1.87 0 0 1-.006-.002h-.001a.138.138 0 0 1-.013-.004h-.002l-.005-.003h-.002a1.212 1.212 0 0 1-.012-.005l-.006-.003h-.002l-.005-.003H9.47l-.006-.003v-.001l-.005-.002-.002-.002-.005-.002h-.001c-.002-.002-.003-.003-.005-.003l-.002-.002-.004-.002-2.353-1.32a1.979 1.979 0 0 1-.589.223 2.453 2.453 0 0 1-.837.02c-.8-.11-1.635-.56-2.393-1.231a8.62 8.62 0 0 1-1.935-2.549L.083 15.7a.295.295 0 0 1-.062-.183l.002-3.726V11.755l.001-.003V11.743l.001-.002v-.005l.001-.002.001-.005v-.003l.001-.005v-.002l.002-.005v-.002l.002-.006.002-.008a.283.283 0 0 1 .004-.014l.003-.007v-.001a.299.299 0 0 1 .008-.02v-.001a.349.349 0 0 1 .007-.013l.003-.006v-.001l.004-.006.003-.006.001-.002.003-.004.001-.002.003-.004.001-.002.003-.004.002-.002.002-.004.002-.002.003-.003.002-.003.003-.003.001-.002.002-.003.003-.003.002-.002.003-.003.002-.003.003-.002.003-.003.002-.002.003-.003.002-.002.002-.002.002-.002.002-.001.002-.002a.543.543 0 0 1 .009-.008l.002-.002.004-.002.002-.002.003-.002.003-.002 1.245-.876a.297.297 0 0 1 .279-.034l.37.124c.218-.577.56-1.055 1.007-1.4.121-.094.25-.178.386-.251l2.563-1.431-.87-.491a.296.296 0 0 1-.15-.258h-.002V5.585c0-.117.068-.219.167-.267L7.19 4.17a.297.297 0 0 1 .313.014l2.353 1.33.419-.234 5.605-3.13c.1-.066.199-.12.295-.164l.002-.002c.431-.196.821-.195 1.17-.194.162 0-.39-.001.072-.001 1.245 0 2.563.628 3.69 1.642a9.057 9.057 0 0 1 2.523 3.911c.362 1.138.433 2.24.252 3.146-.18.91-.615 1.635-1.267 2.027l.001.001-2.796 1.567ZM9.414 19.847v-.001l.003-.002h.001v-.001h.001v-.001l.004-.002v-.001h.001l.001-.001h.001l.002-.002h.001v-.001h.001v-.001h.001l.003-.002.001-.001h.001l.001-.001.003-.002h.001v-.001h.001l.001-.001.496-.349v-3.104l-.65.457v3.104l.125-.087Zm.266 2.352-.006.002.006-.002Zm-1.448-1.395 1.07.6v-.752l-.124.087-.005.004-.005.003-.003.002-.002.002-.003.002-.004.003-.002.001-.004.003-.002.001-.003.002-.004.002-.003.002-.003.002-.003.001-.003.002-.003.001-.004.002-.003.002-.004.002h-.002l-.004.003h-.002l-.005.002H9.1l-.006.003h-.002l-.005.002h-.001a.132.132 0 0 1-.007.003l-.006.002h-.002l-.005.002h-.001l-.007.002-.007.001h-.001l-.006.002h-.008l-.007.002a.14.14 0 0 1-.007 0h-.001l-.007.001-.015.001h-.768Zm12.576-16.84a7.531 7.531 0 0 0-.099-.09c-1.02-.92-2.198-1.489-3.29-1.489-.415 0 .137 0-.072-.001-.283 0-.598-.002-.924.143L10.562 5.8l-.102.057 1.577.89c.105.047.178.152.178.273v1.333a.297.297 0 0 1-.152.26l-2.045 1.146c-.103.065-.224.052-.328-.006l-.003-.001-3.083-1.742-1.339.747c1.141.102 2.323.705 3.346 1.627.088.079.175.16.26.244l11.937-6.663Zm-10.274 14.1c.154-.315.26-.676.313-1.072.099-.739.016-1.598-.277-2.52a8.451 8.451 0 0 0-2.356-3.648c-1.02-.92-2.199-1.488-3.292-1.488-.6 0-1.11.173-1.51.482a2.558 2.558 0 0 0-.805 1.12l.168.056c.192-.133.407-.232.644-.291a2.41 2.41 0 0 1 .918-.04c.77.106 1.572.527 2.306 1.156a8.512 8.512 0 0 1 1.89 2.373l1.855 1.352a.297.297 0 0 1 .146.256v2.263Zm6.527-15.34c.435 0 .836.105 1.131.276.345.199.558.49.558.825 0 .336-.213.627-.558.826-.295.17-.696.276-1.131.276-.436 0-.837-.106-1.132-.276-.345-.2-.558-.49-.558-.826 0-.335.213-.626.558-.825.295-.17.696-.276 1.132-.276Zm.835.792c-.208-.12-.503-.195-.835-.195-.333 0-.628.075-.836.195-.159.091-.257.202-.257.31 0 .107.099.217.257.309.208.12.503.194.835.194.333 0 .628-.074.836-.194.159-.092.257-.202.257-.31 0-.107-.098-.218-.257-.31Zm-4.2 1.054c.436 0 .836.105 1.132.276.344.199.558.49.558.825 0 .336-.214.627-.558.826-.296.17-.696.276-1.132.276-.436 0-.836-.106-1.132-.276-.345-.2-.558-.49-.558-.826 0-.336.213-.626.558-.825.296-.17.696-.276 1.132-.276Zm.835.791c-.208-.12-.503-.194-.835-.194-.333 0-.628.074-.836.194-.158.092-.256.202-.256.31 0 .108.098.218.256.31.208.12.503.194.836.194.332 0 .627-.074.835-.194.159-.092.257-.202.257-.31 0-.108-.098-.218-.257-.31ZM10.156 9l1.464-.82v-.652l-1.464.821V9ZM5.88 5.587l2.675 1.51 1.303.737 1.454-.816L7.335 4.77l-1.455.816Zm-.307 1.159L9.56 8.999v-.653L5.573 6.094v.652Zm2.341 7.556a7.855 7.855 0 0 0-1.657-2.032c-.65-.557-1.347-.928-2-1.018a1.828 1.828 0 0 0-.694.028 1.349 1.349 0 0 0-.517.253l.046.006c.77.106 1.572.527 2.306 1.156a8.443 8.443 0 0 1 1.758 2.14l.758-.533Zm1.813 1.493-1.426-1.039-.733.516.699.509.727.53.061-.043.672-.473Zm-4.715-2.649c-.65-.558-1.347-.929-2-1.018a1.828 1.828 0 0 0-.694.027c-.16.04-.305.106-.435.193v4.73a8.006 8.006 0 0 0 1.778 2.334c.673.596 1.4.994 2.08 1.087.232.032.445.026.636-.014.139-.029.267-.076.383-.14V15.34a7.905 7.905 0 0 0-1.748-2.194Zm2.659 2.934-.315-.23v4.363l1.338-.002v-3.385l-1.023-.746ZM.616 12.19l-.002 3.224.674.866v-3.866l-.672-.224Zm.355-.507.547.182.653-.447-.558-.187-.642.452Zm2.62 5.1 1.462.82v-1.76l-1.462-.82v1.76Z"
    fill="currentColor"/>
</svg>