<svg viewBox="0 0 24 24" fill="none" xmlns="http://www.w3.org/2000/svg">
  <path
    d="M12 2C6.762 2 2.5 6.486 2.5 12S6.762 22 12 22s9.5-4.486 9.5-10S17.238 2 12 2Zm9.035 10.242a9.964 9.964 0 0 1-.256 2.027l-.842-.243-.121.467.842.243a9.742 9.742 0 0 1-.739 1.849l-.754-.465-.232.418.754.464a9.527 9.527 0 0 1-1.139 1.549l-.613-.646-.325.342.613.646c-.471.472-.99.893-1.549 1.25l-.433-.8-.4.24.434.8a8.756 8.756 0 0 1-1.71.74l-.227-.895-.444.125.228.896a8.588 8.588 0 0 1-1.892.261v-.917h-.46v.917a8.614 8.614 0 0 1-1.887-.26l.23-.9-.444-.126-.23.9a8.74 8.74 0 0 1-1.76-.768l.442-.805-.398-.242-.441.804a9.17 9.17 0 0 1-1.505-1.22l.613-.646-.325-.342-.613.645a9.548 9.548 0 0 1-1.162-1.588l.757-.46-.23-.42-.758.462a9.758 9.758 0 0 1-.73-1.857l.848-.24-.12-.466-.847.238a9.962 9.962 0 0 1-.245-1.977h.871v-.484h-.87a9.949 9.949 0 0 1 .25-2l.843.238.119-.468-.843-.237a9.75 9.75 0 0 1 .73-1.848l.754.458.23-.42-.752-.456A9.531 9.531 0 0 1 5.452 5.45l.613.645.325-.342-.613-.645c.46-.46.965-.873 1.51-1.224l.433.791.399-.242-.435-.792a8.751 8.751 0 0 1 1.76-.767l.223.88.444-.126-.223-.878a8.586 8.586 0 0 1 1.935-.26l-.005.916.46.003.005-.917c.63.02 1.242.109 1.834.259l-.223.873.444.125.223-.873a8.745 8.745 0 0 1 1.755.766l-.43.784.398.242.43-.783c.56.36 1.077.785 1.548 1.262l-.617.642.323.344.617-.642c.421.472.798.988 1.122 1.543l-.75.456.229.42.752-.458a9.72 9.72 0 0 1 .742 1.899l-.838.23.116.47.84-.232c.14.625.22 1.274.236 1.94h-.87v.484h.87Z"
    fill="currentColor"/>

  <path
    d="M12 2C6.762 2 2.5 6.486 2.5 12S6.762 22 12 22s9.5-4.486 9.5-10S17.238 2 12 2Zm9.035 10.242a9.964 9.964 0 0 1-.256 2.027l-.842-.243-.121.467.842.243a9.742 9.742 0 0 1-.739 1.849l-.754-.465-.232.418.754.464a9.527 9.527 0 0 1-1.139 1.549l-.613-.646-.325.342.613.646c-.471.472-.99.893-1.549 1.25l-.433-.8-.4.24.434.8a8.756 8.756 0 0 1-1.71.74l-.227-.895-.444.125.228.896a8.588 8.588 0 0 1-1.892.261v-.917h-.46v.917a8.614 8.614 0 0 1-1.887-.26l.23-.9-.444-.126-.23.9a8.74 8.74 0 0 1-1.76-.768l.442-.805-.398-.242-.441.804a9.17 9.17 0 0 1-1.505-1.22l.613-.646-.325-.342-.613.645a9.548 9.548 0 0 1-1.162-1.588l.757-.46-.23-.42-.758.462a9.758 9.758 0 0 1-.73-1.857l.848-.24-.12-.466-.847.238a9.962 9.962 0 0 1-.245-1.977h.871v-.484h-.87a9.949 9.949 0 0 1 .25-2l.843.238.119-.468-.843-.237a9.75 9.75 0 0 1 .73-1.848l.754.458.23-.42-.752-.456A9.531 9.531 0 0 1 5.452 5.45l.613.645.325-.342-.613-.645c.46-.46.965-.873 1.51-1.224l.433.791.399-.242-.435-.792a8.751 8.751 0 0 1 1.76-.767l.223.88.444-.126-.223-.878a8.586 8.586 0 0 1 1.935-.26l-.005.916.46.003.005-.917c.63.02 1.242.109 1.834.259l-.223.873.444.125.223-.873a8.745 8.745 0 0 1 1.755.766l-.43.784.398.242.43-.783c.56.36 1.077.785 1.548 1.262l-.617.642.323.344.617-.642c.421.472.798.988 1.122 1.543l-.75.456.229.42.752-.458a9.72 9.72 0 0 1 .742 1.899l-.838.23.116.47.84-.232c.14.625.22 1.274.236 1.94h-.87v.484h.87Z"
    stroke="currentColor" stroke-width=".2" mask="url(#a)"/>

  <path
    d="M18.088 11.7v-.006a6.55 6.55 0 0 0-.024-.343v-.001c-.01-.11-.024-.22-.04-.328-.01-.075-.024-.149-.038-.223-.006-.032-.01-.064-.017-.096a6.814 6.814 0 0 0-.053-.243l-.016-.072a7.298 7.298 0 0 0-.065-.242l-.02-.069a7.74 7.74 0 0 0-.076-.234l-.024-.073a6.15 6.15 0 0 0-.21-.522l-.03-.065-.072-.153-.085-.171-.006.001c-.816-1.522-2.204-2.66-3.856-3.088v-.004l-.182-.041-.023-.005a5.47 5.47 0 0 0-.235-.045l-.073-.014a5.798 5.798 0 0 0-.942-.077h-.037l-.029.002a5.922 5.922 0 0 0-.294.01l-.062.005c-.085.006-.17.014-.254.023l-.1.014a4.998 4.998 0 0 0-.512.092l-.065.013-.179.043v.004c-1.625.444-2.988 1.58-3.79 3.087l-.005-.001-.085.172c-.023.047-.043.094-.065.141l-.027.06a6.654 6.654 0 0 0-.313.835l-.014.048c-.025.087-.05.175-.07.263-.004.01-.006.021-.008.032a6.644 6.644 0 0 0-.156.934l-.005.077a6.756 6.756 0 0 0-.018.267v.015l-.009.195h.004l-.002.085c0 1.49.486 2.862 1.299 3.952l-.005.006.118.148c.177.223.37.431.573.627l.026.025c.062.06.126.118.191.175l.044.037c.063.055.126.107.192.159l.044.034c.067.053.136.105.205.154l.013.009c.252.178.515.338.788.475l.168.084.004-.005a5.8 5.8 0 0 0 4.828.02l.003.004.167-.081c.022-.011.043-.024.066-.035l.047-.025c.338-.174.661-.382.964-.62l.005-.004c.07-.055.137-.111.204-.169l.034-.029c.066-.057.131-.117.196-.178l.027-.026a6.401 6.401 0 0 0 .545-.59l.12-.15-.004-.006a6.598 6.598 0 0 0 1.328-3.99c0-.036-.002-.071-.003-.107l.004-.001-.009-.194Zm-3.094 1.867a.484.484 0 0 1-.07-.459l.033-.098a.45.45 0 0 1 .319-.319l1.502-.424a5.248 5.248 0 0 1-.838 2.594l-.946-1.294Zm.163-1.343a.926.926 0 0 0-.638.638 1.83 1.83 0 0 1-.026.082.993.993 0 0 0 .137.918l1.548 2.118-.057.063c-.081.091-.164.18-.25.265-.03.03-.059.06-.09.089a5.671 5.671 0 0 1-.314.277l-.083.068a5.65 5.65 0 0 1-.342.25l-.093.063a5.387 5.387 0 0 1-.416.244l-1.492-2.04a1.105 1.105 0 0 0-.908-.473l-.042.001a2.705 2.705 0 0 1-.226-.002 1.097 1.097 0 0 0-.971.473l-1.468 2.019-.054-.03a5.416 5.416 0 0 1-.78-.524l-.095-.08a5.78 5.78 0 0 1-.304-.271l-.098-.1a5.832 5.832 0 0 1-.268-.288l-.035-.042 1.56-2.145c.19-.26.24-.589.142-.895l-.008-.023a.926.926 0 0 0-.635-.632l-2.468-.696.003-.038c.012-.158.03-.316.054-.471l.016-.094c.025-.149.055-.297.091-.443l.028-.104c.036-.134.076-.268.12-.4l.042-.114a6.02 6.02 0 0 1 .15-.374l.028-.066 2.234.63c.123.035.247.053.369.053.303 0 .595-.11.843-.316l-.143-.19.17.167c.348-.28.54-.69.54-1.151V6.18c.014-.004.028-.006.043-.009.155-.03.311-.055.468-.071h.008c.166-.018.331-.026.497-.028h.024c.16-.002.32.006.479.019l.058.004c.151.015.303.036.453.063l.038.007V8.58c0 .476.201.892.565 1.172l.066.053c.347.285.78.377 1.205.257l2.245-.633.023.054c.056.125.107.251.154.379l.039.102c.047.137.089.277.127.417l.03.112c.036.144.066.29.091.437l.017.097c.024.155.043.312.056.47l.002.034-2.459.694Zm-1.598 4.537a4.576 4.576 0 0 1-3.166-.017l.865-1.191a.653.653 0 0 1 .544-.286l.04.002c.088.004.175.005.265.002h.026c.22 0 .408.097.544.283l.882 1.207Zm-5.528-1.945a5.257 5.257 0 0 1-.808-2.527l1.509.425c.157.045.267.154.325.339a.484.484 0 0 1-.07.45l-.956 1.313ZM7.993 9.25a4.854 4.854 0 0 1 2.475-2.016v1.405a.954.954 0 0 1-.36.768l-.032.027a.856.856 0 0 1-.808.176l-1.275-.36Zm5.463-2.044a4.83 4.83 0 0 1 2.539 2.026l-1.281.362a.854.854 0 0 1-.804-.172 3.213 3.213 0 0 0-.077-.061.952.952 0 0 1-.377-.782V7.206Zm3.396 1.784-.387.11c-.684-1.165-1.76-2.024-3.009-2.405v-.423c1.44.406 2.654 1.398 3.396 2.718Zm-6.384-2.695v.43c-1.22.393-2.27 1.252-2.936 2.395l-.394-.111c.728-1.306 1.917-2.293 3.33-2.714Zm-4.102 5.752.392.11c.03 1.097.375 2.17.98 3.061l-.246.34a6.104 6.104 0 0 1-1.126-3.51ZM12 17.934a5.36 5.36 0 0 1-2.147-.448l.245-.337c.608.25 1.246.378 1.902.378a4.99 4.99 0 0 0 1.854-.361l.248.339a5.36 5.36 0 0 1-2.102.43Zm4.479-2.337-.246-.335a5.745 5.745 0 0 0 1.01-3.126l.393-.11a6.102 6.102 0 0 1-1.157 3.572Z"
    fill="currentColor"/>

  <path
    d="M18.088 11.7v-.006a6.55 6.55 0 0 0-.024-.343v-.001c-.01-.11-.024-.22-.04-.328-.01-.075-.024-.149-.038-.223-.006-.032-.01-.064-.017-.096a6.814 6.814 0 0 0-.053-.243l-.016-.072a7.298 7.298 0 0 0-.065-.242l-.02-.069a7.74 7.74 0 0 0-.076-.234l-.024-.073a6.15 6.15 0 0 0-.21-.522l-.03-.065-.072-.153-.085-.171-.006.001c-.816-1.522-2.204-2.66-3.856-3.088v-.004l-.182-.041-.023-.005a5.47 5.47 0 0 0-.235-.045l-.073-.014a5.798 5.798 0 0 0-.942-.077h-.037l-.029.002a5.922 5.922 0 0 0-.294.01l-.062.005c-.085.006-.17.014-.254.023l-.1.014a4.998 4.998 0 0 0-.512.092l-.065.013-.179.043v.004c-1.625.444-2.988 1.58-3.79 3.087l-.005-.001-.085.172c-.023.047-.043.094-.065.141l-.027.06a6.654 6.654 0 0 0-.313.835l-.014.048c-.025.087-.05.175-.07.263-.004.01-.006.021-.008.032a6.644 6.644 0 0 0-.156.934l-.005.077a6.756 6.756 0 0 0-.018.267v.015l-.009.195h.004l-.002.085c0 1.49.486 2.862 1.299 3.952l-.005.006.118.148c.177.223.37.431.573.627l.026.025c.062.06.126.118.191.175l.044.037c.063.055.126.107.192.159l.044.034c.067.053.136.105.205.154l.013.009c.252.178.515.338.788.475l.168.084.004-.005a5.8 5.8 0 0 0 4.828.02l.003.004.167-.081c.022-.011.043-.024.066-.035l.047-.025c.338-.174.661-.382.964-.62l.005-.004c.07-.055.137-.111.204-.169l.034-.029c.066-.057.131-.117.196-.178l.027-.026a6.401 6.401 0 0 0 .545-.59l.12-.15-.004-.006a6.598 6.598 0 0 0 1.328-3.99c0-.036-.002-.071-.003-.107l.004-.001-.009-.194Zm-3.094 1.867a.484.484 0 0 1-.07-.459l.033-.098a.45.45 0 0 1 .319-.319l1.502-.424a5.248 5.248 0 0 1-.838 2.594l-.946-1.294Zm.163-1.343a.926.926 0 0 0-.638.638 1.83 1.83 0 0 1-.026.082.993.993 0 0 0 .137.918l1.548 2.118-.057.063c-.081.091-.164.18-.25.265-.03.03-.059.06-.09.089a5.671 5.671 0 0 1-.314.277l-.083.068a5.65 5.65 0 0 1-.342.25l-.093.063a5.387 5.387 0 0 1-.416.244l-1.492-2.04a1.105 1.105 0 0 0-.908-.473l-.042.001a2.705 2.705 0 0 1-.226-.002 1.097 1.097 0 0 0-.971.473l-1.468 2.019-.054-.03a5.416 5.416 0 0 1-.78-.524l-.095-.08a5.78 5.78 0 0 1-.304-.271l-.098-.1a5.832 5.832 0 0 1-.268-.288l-.035-.042 1.56-2.145c.19-.26.24-.589.142-.895l-.008-.023a.926.926 0 0 0-.635-.632l-2.468-.696.003-.038c.012-.158.03-.316.054-.471l.016-.094c.025-.149.055-.297.091-.443l.028-.104c.036-.134.076-.268.12-.4l.042-.114a6.02 6.02 0 0 1 .15-.374l.028-.066 2.234.63c.123.035.247.053.369.053.303 0 .595-.11.843-.316l-.143-.19.17.167c.348-.28.54-.69.54-1.151V6.18c.014-.004.028-.006.043-.009.155-.03.311-.055.468-.071h.008c.166-.018.331-.026.497-.028h.024c.16-.002.32.006.479.019l.058.004c.151.015.303.036.453.063l.038.007V8.58c0 .476.201.892.565 1.172l.066.053c.347.285.78.377 1.205.257l2.245-.633.023.054c.056.125.107.251.154.379l.039.102c.047.137.089.277.127.417l.03.112c.036.144.066.29.091.437l.017.097c.024.155.043.312.056.47l.002.034-2.459.694Zm-1.598 4.537a4.576 4.576 0 0 1-3.166-.017l.865-1.191a.653.653 0 0 1 .544-.286l.04.002c.088.004.175.005.265.002h.026c.22 0 .408.097.544.283l.882 1.207Zm-5.528-1.945a5.257 5.257 0 0 1-.808-2.527l1.509.425c.157.045.267.154.325.339a.484.484 0 0 1-.07.45l-.956 1.313ZM7.993 9.25a4.854 4.854 0 0 1 2.475-2.016v1.405a.954.954 0 0 1-.36.768l-.032.027a.856.856 0 0 1-.808.176l-1.275-.36Zm5.463-2.044a4.83 4.83 0 0 1 2.539 2.026l-1.281.362a.854.854 0 0 1-.804-.172 3.213 3.213 0 0 0-.077-.061.952.952 0 0 1-.377-.782V7.206Zm3.396 1.784-.387.11c-.684-1.165-1.76-2.024-3.009-2.405v-.423c1.44.406 2.654 1.398 3.396 2.718Zm-6.384-2.695v.43c-1.22.393-2.27 1.252-2.936 2.395l-.394-.111c.728-1.306 1.917-2.293 3.33-2.714Zm-4.102 5.752.392.11c.03 1.097.375 2.17.98 3.061l-.246.34a6.104 6.104 0 0 1-1.126-3.51ZM12 17.934a5.36 5.36 0 0 1-2.147-.448l.245-.337c.608.25 1.246.378 1.902.378a4.99 4.99 0 0 0 1.854-.361l.248.339a5.36 5.36 0 0 1-2.102.43Zm4.479-2.337-.246-.335a5.745 5.745 0 0 0 1.01-3.126l.393-.11a6.102 6.102 0 0 1-1.157 3.572Z"
    stroke="currentColor" stroke-width=".2" mask="url(#b)"/>

  <path
    d="M12 10.614c-.73 0-1.319.624-1.319 1.385 0 .762.59 1.386 1.32 1.386.729 0 1.318-.624 1.318-1.386 0-.76-.59-1.385-1.319-1.385Zm0 2.187c-.416 0-.759-.357-.759-.802 0-.444.343-.801.76-.801.415 0 .758.357.758.801 0 .445-.343.802-.759.802Z"
    fill="#000" stroke="currentColor" stroke-width=".1"/>
</svg>