<svg viewBox="0 0 197 24" fill="none" xmlns="http://www.w3.org/2000/svg">
  <path
    d="M46.396 9.642H28.958v4.664h17.438V9.642ZM46.396 18.865H28.958v4.663h17.438v-4.663ZM21.627.42l-8.536 14.41L4.451.42H0v23.16h5.027V10.01l6.808 11.109h2.408l6.808-11.424v13.887h5.027L26.026.419h-4.399ZM105.465 19.441c1.047 0 1.99-.157 2.88-.524a6.797 6.797 0 0 0 2.304-1.52c.681-.68 1.152-1.467 1.518-2.358.367-.89.524-1.886.524-2.987 0-1.1-.157-2.096-.524-2.986a7.917 7.917 0 0 0-1.518-2.359c-.629-.68-1.414-1.152-2.304-1.52-.89-.366-1.833-.523-2.88-.523-1.048 0-1.99.157-2.88.524a6.791 6.791 0 0 0-2.305 1.52c-.68.68-1.152 1.467-1.518 2.357-.367.891-.524 1.887-.524 2.987s.157 2.097.524 2.987c.366.891.89 1.73 1.518 2.358.629.682 1.414 1.153 2.305 1.52.89.314 1.832.524 2.88.524Zm.052 4.559c-1.833 0-3.508-.314-5.079-.89a11.42 11.42 0 0 1-4.033-2.516 11.468 11.468 0 0 1-2.67-3.825c-.629-1.468-.943-3.04-.943-4.769 0-1.73.314-3.301.943-4.769a11.467 11.467 0 0 1 2.67-3.825 11.905 11.905 0 0 1 4.033-2.515C101.956.314 103.632 0 105.465 0c1.832 0 3.508.314 5.027.89 1.518.577 2.88 1.416 3.98 2.516a11.8 11.8 0 0 1 2.67 3.773c.629 1.467.943 3.04.943 4.769s-.314 3.3-.943 4.768a11.462 11.462 0 0 1-2.67 3.825 13.54 13.54 0 0 1-3.98 2.516c-1.519.629-3.195.943-4.975.943ZM134.423 5.869c.838.681 1.204 1.677 1.204 2.987 0 1.258-.419 2.253-1.204 2.987-.838.733-2.042 1.1-3.718 1.1h-4.346V4.77h4.346c1.676 0 2.88.366 3.718 1.1Zm7.069 17.712-5.184-7.441h.052c1.519-.681 2.671-1.625 3.457-2.882.837-1.258 1.204-2.725 1.204-4.455 0-1.729-.419-3.248-1.204-4.506-.838-1.258-1.99-2.2-3.457-2.882-1.518-.681-3.299-.996-5.341-.996h-10.002v23.162h5.342v-6.446H131.281l4.451 6.446h5.76ZM49.433.42v4.715h7.384v18.446h5.394V5.083h7.383V.419h-20.16ZM46.448.42h-17.49v4.715h17.49V.42ZM90.017.42h-17.49v4.715h17.49V.42ZM89.964 9.642H72.527v4.664h17.437V9.642ZM89.964 18.865H72.527v4.663h17.437v-4.663Z"
    fill="#ED1C24"/>
  <path
    d="M46.396 9.642H28.958v4.664h17.438V9.642ZM46.396 18.865H28.958v4.663h17.438v-4.663ZM21.627.42l-8.536 14.41L4.451.42H0v23.16h5.027V10.01l6.808 11.109h2.408l6.808-11.424v13.887h5.027L26.026.419h-4.399ZM105.465 19.441c1.047 0 1.99-.157 2.88-.524a6.797 6.797 0 0 0 2.304-1.52c.681-.68 1.152-1.467 1.518-2.358.367-.89.524-1.886.524-2.987 0-1.1-.157-2.096-.524-2.986a7.917 7.917 0 0 0-1.518-2.359c-.629-.68-1.414-1.152-2.304-1.52-.89-.366-1.833-.523-2.88-.523-1.048 0-1.99.157-2.88.524a6.791 6.791 0 0 0-2.305 1.52c-.68.68-1.152 1.467-1.518 2.357-.367.891-.524 1.887-.524 2.987s.157 2.097.524 2.987c.366.891.89 1.73 1.518 2.358.629.682 1.414 1.153 2.305 1.52.89.314 1.832.524 2.88.524Zm.052 4.559c-1.833 0-3.508-.314-5.079-.89a11.42 11.42 0 0 1-4.033-2.516 11.468 11.468 0 0 1-2.67-3.825c-.629-1.468-.943-3.04-.943-4.769 0-1.73.314-3.301.943-4.769a11.467 11.467 0 0 1 2.67-3.825 11.905 11.905 0 0 1 4.033-2.515C101.956.314 103.632 0 105.465 0c1.832 0 3.508.314 5.027.89 1.518.577 2.88 1.416 3.98 2.516a11.8 11.8 0 0 1 2.67 3.773c.629 1.467.943 3.04.943 4.769s-.314 3.3-.943 4.768a11.462 11.462 0 0 1-2.67 3.825 13.54 13.54 0 0 1-3.98 2.516c-1.519.629-3.195.943-4.975.943ZM134.423 5.869c.838.681 1.204 1.677 1.204 2.987 0 1.258-.419 2.253-1.204 2.987-.838.733-2.042 1.1-3.718 1.1h-4.346V4.77h4.346c1.676 0 2.88.366 3.718 1.1Zm7.069 17.712-5.184-7.441h.052c1.519-.681 2.671-1.625 3.457-2.882.837-1.258 1.204-2.725 1.204-4.455 0-1.729-.419-3.248-1.204-4.506-.838-1.258-1.99-2.2-3.457-2.882-1.518-.681-3.299-.996-5.341-.996h-10.002v23.162h5.342v-6.446H131.281l4.451 6.446h5.76ZM49.433.42v4.715h7.384v18.446h5.394V5.083h7.383V.419h-20.16ZM46.448.42h-17.49v4.715h17.49V.42ZM90.017.42h-17.49v4.715h17.49V.42ZM89.964 9.642H72.527v4.664h17.437V9.642ZM89.964 18.865H72.527v4.663h17.437v-4.663ZM197 .734h-52.366v16.14H197V.733Z"
    fill="#fff"/>
  <path
    d="M159.873 13.467h1.832l-4.241-9.38h-1.728l-4.242 9.38h1.781l.942-2.2h4.713l.943 2.2Zm-5.027-3.563 1.78-4.14 1.78 4.14h-3.56ZM168.461 3.983v5.24c0 .943-.21 1.677-.629 2.096-.419.419-.995.681-1.78.681-.786 0-1.362-.21-1.781-.681-.419-.42-.628-1.153-.628-2.096v-5.24h-1.676v5.292c0 1.363.367 2.41 1.1 3.144.733.734 1.728 1.1 3.037 1.1 1.257 0 2.304-.366 3.037-1.1.734-.733 1.1-1.781 1.1-3.144V3.983h-1.78ZM171.55 4.14v1.467h3.09v7.913h1.78V5.607h3.09V4.14h-7.96ZM189.669 6.917a5.238 5.238 0 0 0-1.048-1.52c-.471-.419-.994-.786-1.623-.995-.628-.262-1.309-.367-2.042-.367-.733 0-1.414.105-1.99.367a5.63 5.63 0 0 0-1.623.995c-.472.42-.786.944-1.048 1.52-.262.576-.366 1.205-.366 1.939 0 .681.104 1.362.366 1.939.262.576.629 1.1 1.048 1.52.419.419.995.785 1.623.995.628.262 1.309.367 2.042.367.733 0 1.414-.105 1.99-.367a5.617 5.617 0 0 0 1.623-.996c.472-.419.786-.943 1.048-1.52.262-.576.366-1.257.366-1.938s-.104-1.363-.366-1.939Zm-1.624 3.249c-.157.42-.418.734-.68 1.048-.262.314-.629.524-1.048.681-.419.157-.837.262-1.309.262-.471 0-.89-.105-1.309-.262a2.787 2.787 0 0 1-1.047-.681 2.794 2.794 0 0 1-.681-1.048c-.157-.42-.262-.838-.262-1.31 0-.472.105-.943.262-1.31.157-.42.419-.734.681-1.048a2.787 2.787 0 0 1 1.047-.681c.419-.158.838-.262 1.309-.262.472 0 .89.104 1.309.262a2.79 2.79 0 0 1 1.048.68c.314.315.523.63.68 1.049.158.42.262.838.262 1.31 0 .472-.104.943-.262 1.31Z"
    fill="#ED1C24"/>
</svg>