<svg xmlns="http://www.w3.org/2000/svg" viewBox="0 0 5212.3 635">
  <defs>
    <style>.fil0,.fil1{fill:#214f99;fill-rule:nonzero}.fil1{fill:#ed1c24}
    </style>
  </defs>
  <g id="Layer_x0020_1">
    <path class="fil0"
          d="M1227.57 255.11H766.19V378.5h461.38zM1227.57 499.13H766.19v123.39h461.38zM572.22 11.09 346.38 392.37 117.77 11.09H0v612.82h133.01v-359.1l180.12 293.93h63.73L556.98 256.5v367.41h133.01L688.6 11.09zM2790.43 514.38c27.7 0 52.65-4.16 76.2-13.87 23.55-9.7 42.94-22.18 60.96-40.2 18.02-18.03 30.48-38.83 40.17-62.4 9.71-23.56 13.86-49.91 13.86-79.02 0-29.12-4.15-55.46-13.86-79.03-9.69-23.57-23.55-44.37-40.17-62.39-16.64-18.03-37.41-30.5-60.96-40.21-23.55-9.71-48.5-13.86-76.2-13.86-27.73 0-52.65 4.15-76.2 13.86-23.57 9.71-42.97 22.18-60.98 40.21-18 18.02-30.47 38.82-40.17 62.39-9.7 23.57-13.86 49.91-13.86 79.03 0 29.11 4.16 55.46 13.86 79.02 9.7 23.57 23.55 45.76 40.17 62.4 16.64 18.02 37.41 30.5 60.98 40.2 23.55 8.32 48.47 13.87 76.2 13.87zm1.38 120.62c-48.5 0-92.82-8.32-134.38-23.57-41.58-15.25-76.22-37.43-106.7-66.55-30.48-29.12-54.04-62.39-70.66-101.21-16.63-38.82-24.94-80.42-24.94-126.17s8.31-87.35 24.94-126.17c16.62-38.82 40.18-72.09 70.66-101.21 30.48-29.12 66.5-51.3 106.7-66.55 40.16-15.25 84.5-23.57 133-23.57 48.47 0 92.82 8.32 133.01 23.57 40.16 15.25 76.2 37.43 105.3 66.55 30.48 29.12 54.03 62.39 70.65 99.83 16.64 38.82 24.95 80.41 24.95 126.16 0 45.76-8.31 87.35-24.95 126.17-16.62 38.82-40.17 72.1-70.65 101.21-30.48 27.73-65.14 49.91-105.3 66.55-40.19 16.64-84.54 24.96-131.63 24.96zM3556.61 155.28c22.17 18.03 31.86 44.37 31.86 79.03 0 33.28-11.09 59.62-31.86 79.03-22.17 19.41-54.03 29.12-98.37 29.12h-114.99V126.17h114.99c44.34 0 76.2 9.7 98.37 29.11zm187.04 468.63-137.16-196.88h1.37c40.19-18.02 70.67-42.98 91.47-76.26 22.14-33.27 31.85-72.09 31.85-117.84 0-45.76-11.08-85.97-31.85-119.24-22.17-33.28-52.65-58.23-91.47-76.26-40.16-18.02-87.28-26.34-141.31-26.34h-264.64v612.82h141.34V453.37h130.23l117.77 170.54h152.4zM1307.93 11.09v124.78h195.35v488.04h142.71V134.49h195.36V11.09zM1228.95 11.09H766.19v124.78h462.76zM2381.7 11.09h-462.76v124.78h462.76zM2380.31 255.11h-461.37V378.5h461.37zM2380.31 499.13h-461.37v123.39h461.37z"/>

    <path class="fil1"
          d="M1227.57 255.11H766.19V378.5h461.38zM1227.57 499.13H766.19v123.39h461.38zM572.22 11.09 346.38 392.37 117.77 11.09H0v612.82h133.01v-359.1l180.12 293.93h63.73L556.98 256.5v367.41h133.01L688.6 11.09zM2790.43 514.38c27.7 0 52.65-4.16 76.2-13.87 23.55-9.7 42.94-22.18 60.96-40.2 18.02-18.03 30.48-38.83 40.17-62.4 9.71-23.56 13.86-49.91 13.86-79.02 0-29.12-4.15-55.46-13.86-79.03-9.69-23.57-23.55-44.37-40.17-62.39-16.64-18.03-37.41-30.5-60.96-40.21-23.55-9.71-48.5-13.86-76.2-13.86-27.73 0-52.65 4.15-76.2 13.86-23.57 9.71-42.97 22.18-60.98 40.21-18 18.02-30.47 38.82-40.17 62.39-9.7 23.57-13.86 49.91-13.86 79.03 0 29.11 4.16 55.46 13.86 79.02 9.7 23.57 23.55 45.76 40.17 62.4 16.64 18.02 37.41 30.5 60.98 40.2 23.55 8.32 48.47 13.87 76.2 13.87zm1.38 120.62c-48.5 0-92.82-8.32-134.38-23.57-41.58-15.25-76.22-37.43-106.7-66.55-30.48-29.12-54.04-62.39-70.66-101.21-16.63-38.82-24.94-80.42-24.94-126.17s8.31-87.35 24.94-126.17c16.62-38.82 40.18-72.09 70.66-101.21 30.48-29.12 66.5-51.3 106.7-66.55 40.16-15.25 84.5-23.57 133-23.57 48.47 0 92.82 8.32 133.01 23.57 40.16 15.25 76.2 37.43 105.3 66.55 30.48 29.12 54.03 62.39 70.65 99.83 16.64 38.82 24.95 80.41 24.95 126.16 0 45.76-8.31 87.35-24.95 126.17-16.62 38.82-40.17 72.1-70.65 101.21-30.48 27.73-65.14 49.91-105.3 66.55-40.19 16.64-84.54 24.96-131.63 24.96zM3556.61 155.28c22.17 18.03 31.86 44.37 31.86 79.03 0 33.28-11.09 59.62-31.86 79.03-22.17 19.41-54.03 29.12-98.37 29.12h-114.99V126.17h114.99c44.34 0 76.2 9.7 98.37 29.11zm187.04 468.63-137.16-196.88h1.37c40.19-18.02 70.67-42.98 91.47-76.26 22.14-33.27 31.85-72.09 31.85-117.84 0-45.76-11.08-85.97-31.85-119.24-22.17-33.28-52.65-58.23-91.47-76.26-40.16-18.02-87.28-26.34-141.31-26.34h-264.64v612.82h141.34V453.37h130.23l117.77 170.54h152.4zM1307.93 11.09v124.78h195.35v488.04h142.71V134.49h195.36V11.09zM1228.95 11.09H766.19v124.78h462.76zM2381.7 11.09h-462.76v124.78h462.76zM2380.31 255.11h-461.37V378.5h461.37zM2380.31 499.13h-461.37v123.39h461.37zM4947.66 114.27c16.64 5.55 30.48 15.25 42.94 26.35 11.09 11.09 20.8 24.95 27.73 40.2 6.93 15.25 9.68 33.28 9.68 51.3 0 18.03-2.75 36.05-9.68 51.3s-15.24 29.12-27.73 40.21c-12.46 11.09-26.3 19.41-42.94 26.34-15.24 6.94-33.26 9.71-52.65 9.71-19.4 0-37.41-2.77-54.03-9.71-16.62-5.55-31.86-15.25-42.94-26.34-11.09-11.09-20.8-24.96-27.73-40.21s-9.68-33.27-9.68-51.3c0-19.41 2.75-36.05 9.68-51.3s15.24-29.11 27.73-40.2c12.46-11.1 26.32-19.41 42.94-26.35 38.97-16.25 85.66-8.74 106.68 0zm-198.12-6.93v38.82h-81.76v209.36h-47.09V146.16h-81.76v-38.82h210.61zm-245.24-4.16v140.03c0 36.05-9.69 63.78-29.11 83.19-19.39 19.41-47.09 29.12-80.35 29.12-34.63 0-60.96-9.71-80.35-29.12-19.4-19.41-29.11-47.14-29.11-83.19V103.18h44.35v138.65c0 24.95 5.53 44.37 16.61 55.46 11.09 12.47 26.33 18.02 47.12 18.02 20.77 0 36.01-6.93 47.1-18.02 11.09-11.09 16.64-30.51 16.64-55.46V103.18h47.1zm-338.06 2.77 112.21 248.18h-48.47l-24.95-58.23h-124.7l-24.92 58.23h-47.13l112.24-248.18h45.72zm-339.46-86.53V446.44H5212.3V19.41H3826.78v.01zm270.19 240.43 47.1-109.53 47.09 109.53h-94.19zm878.39 6.93c-4.15 11.1-11.06 19.42-17.99 27.73-6.93 8.32-16.64 13.87-27.73 18.03-11.08 4.16-22.14 6.93-34.63 6.93-12.46 0-23.55-2.77-34.64-6.93-11.08-4.16-19.39-9.71-27.7-18.03-8.31-8.31-13.86-16.63-18.02-27.73-4.15-11.09-6.93-22.18-6.93-34.66 0-12.48 2.78-24.95 6.93-34.66 4.16-11.09 11.09-19.41 18.02-27.73 8.31-8.32 16.62-13.86 27.7-18.02 11.09-4.16 22.18-6.94 34.64-6.94 12.49 0 23.55 2.78 34.63 6.94 11.09 4.16 19.42 9.7 27.73 18.02 8.31 8.32 13.84 16.64 17.99 27.73 4.18 11.09 6.93 22.18 6.93 34.66 0 12.48-2.75 24.96-6.93 34.66z"/>
  </g>
</svg>