<svg viewBox="0 0 171 24" fill="none" xmlns="http://www.w3.org/2000/svg">
  <path
    d="M26.251 23.609 26.186.8h-4.425l-8.578 14.161L4.46.8H0v22.809h5.058V10.211l6.818 10.984h2.43l6.86-11.277.027 13.691h5.058ZM56.93 23.609V5.1h-7.454V.793H69.77v4.3h-7.45v18.51l-5.39.006ZM89.3.8H71.772v4.237H89.3V.8ZM89.3 10.151H71.772v4.104H89.3V10.15ZM89.3 19.372H71.772v4.237H89.3v-4.237ZM47 .8H29.444v4.3H47V.8ZM47 10.151H29.444v4.104H47V10.15ZM47 19.372H29.444v4.237H47v-4.237ZM104.542 23.999a14.415 14.415 0 0 1-5.106-.88 12.146 12.146 0 0 1-4.065-2.477 11.288 11.288 0 0 1-2.661-3.747 12.1 12.1 0 0 1 0-9.384 11.19 11.19 0 0 1 2.678-3.747 12.376 12.376 0 0 1 4.068-2.477 15.025 15.025 0 0 1 10.134 0c1.494.559 2.861 1.4 4.023 2.477a11.368 11.368 0 0 1 2.729 3.845 11.17 11.17 0 0 1 .917 4.595 11.434 11.434 0 0 1-.967 4.708 11.275 11.275 0 0 1-2.679 3.747 12.355 12.355 0 0 1-4.03 2.47c-1.611.595-3.32.89-5.041.87Zm-.034-4.497a7.77 7.77 0 0 0 2.879-.52 6.902 6.902 0 0 0 2.312-1.5 6.834 6.834 0 0 0 1.545-2.314 8.251 8.251 0 0 0 0-5.93 6.963 6.963 0 0 0-1.528-2.314 6.737 6.737 0 0 0-2.315-1.497 7.807 7.807 0 0 0-2.893-.523 7.68 7.68 0 0 0-2.877.523 6.85 6.85 0 0 0-3.86 3.81 8.251 8.251 0 0 0 0 5.915 6.866 6.866 0 0 0 1.528 2.333 6.69 6.69 0 0 0 2.315 1.5 7.876 7.876 0 0 0 2.894.517ZM140.494 23.609l-5.205-7.317.048-.017a7.796 7.796 0 0 0 3.492-2.814 7.706 7.706 0 0 0 1.233-4.383 7.827 7.827 0 0 0-1.233-4.43 7.866 7.866 0 0 0-3.492-2.855 13.328 13.328 0 0 0-5.392-1H119.88v22.81h5.388v-6.348h4.939l4.476 6.364 5.811-.01Zm-7.121-17.482c.819.696 1.23 1.674 1.232 2.934.03.545-.066 1.09-.279 1.595a3.67 3.67 0 0 1-.953 1.322c-.819.707-2.062 1.06-3.727 1.06h-4.391V5.1h4.391c1.658 0 2.901.343 3.727 1.027ZM149.926 6.647v1.694h-2.941V.557h-2.263v9.594h7.471V6.647h-2.267ZM161.078 2.337V.557h-7.401v9.594h2.267V6.654h3.384v-1.78h-3.384V2.337h5.134ZM165.598 10.15V2.918L162.463 4.1V1.617l4.268-1.61L171 1.617V4.1l-3.125-1.183v7.234h-2.277Z"
    fill="#0A2751"/>
  <path
    d="M151.06 2.894c.816 0 1.477-.648 1.477-1.447 0-.8-.661-1.447-1.477-1.447-.816 0-1.478.648-1.478 1.447s.662 1.447 1.478 1.447Z"
    fill="#D1373B"/>
</svg>