<svg viewBox="0 0 142 24" fill="none" xmlns="http://www.w3.org/2000/svg">
  <path
    d="M26.532 23.602 26.467.4h-4.472l-8.67 14.406L4.507.4H0v23.202h5.112V9.973l6.892 11.174h2.456l6.932-11.472.028 13.927h5.112ZM57.541 23.602V4.775h-7.534V.393h20.511v4.375h-7.53v18.828l-5.447.006ZM90.271.4h-17.73v4.31h17.73V.4ZM90.271 9.912h-17.73v4.175h17.73V9.912ZM90.271 19.292h-17.73v4.31h17.73v-4.31ZM47.57.4H29.76v4.375h17.81V.4ZM47.57 9.912H29.76v4.175h17.81V9.912ZM47.57 19.292H29.76v4.31h17.81v-4.31ZM105.662 23.999a14.48 14.48 0 0 1-5.16-.895 12.26 12.26 0 0 1-4.108-2.52 11.482 11.482 0 0 1-2.69-3.811 12.381 12.381 0 0 1 0-9.546 11.382 11.382 0 0 1 2.707-3.812 12.496 12.496 0 0 1 4.111-2.52 15.093 15.093 0 0 1 10.242 0 12.335 12.335 0 0 1 4.067 2.52 11.577 11.577 0 0 1 2.759 3.911c.634 1.478.949 3.07.926 4.675a11.714 11.714 0 0 1-.977 4.789 11.477 11.477 0 0 1-2.708 3.811 12.467 12.467 0 0 1-4.073 2.513 14.14 14.14 0 0 1-5.096.885Zm-.034-4.575c.996.01 1.984-.169 2.91-.529a6.962 6.962 0 0 0 3.898-3.88 8.432 8.432 0 0 0 0-6.032 7.091 7.091 0 0 0-1.544-2.353 6.799 6.799 0 0 0-2.34-1.523 7.845 7.845 0 0 0-2.924-.532 7.713 7.713 0 0 0-2.907.532 7.006 7.006 0 0 0-2.34 1.523 6.974 6.974 0 0 0-1.562 2.353 8.445 8.445 0 0 0 0 6.016 6.989 6.989 0 0 0 1.545 2.374 6.763 6.763 0 0 0 2.339 1.526 7.919 7.919 0 0 0 2.925.525ZM142 23.602l-5.26-7.443.048-.017a7.896 7.896 0 0 0 3.53-2.862 7.878 7.878 0 0 0 1.245-4.46 8.011 8.011 0 0 0-1.245-4.506 7.963 7.963 0 0 0-3.53-2.903 13.395 13.395 0 0 0-5.45-1.018h-10.173v23.202h5.446V17.14h4.992l4.524 6.473 5.873-.01ZM134.803 5.82c.828.708 1.243 1.703 1.245 2.984.03.555-.067 1.11-.282 1.623a3.745 3.745 0 0 1-.963 1.345c-.828.718-2.084 1.078-3.768 1.078h-4.438V4.775h4.438c1.677 0 2.933.348 3.768 1.044Z"
    fill="currentColor"/>
</svg>