<svg viewBox="0 0 24 24" fill="none" xmlns="http://www.w3.org/2000/svg">
  <path fill-rule="evenodd" clip-rule="evenodd"
        d="M4.237 10.927c4.832-1.976 8.054-3.278 9.666-3.908 4.603-1.796 5.56-2.109 6.183-2.119.137-.002.444.03.642.181.168.128.214.3.236.421.022.121.05.397.028.613-.25 2.46-1.329 8.428-1.878 11.183-.232 1.166-.69 1.557-1.133 1.595-.962.083-1.693-.597-2.625-1.17-1.459-.898-2.283-1.457-3.7-2.332-1.636-1.012-.575-1.569.358-2.478.244-.238 4.485-3.858 4.567-4.186.01-.041.02-.194-.077-.275-.097-.081-.24-.054-.343-.032-.147.032-2.477 1.477-6.992 4.337-.661.427-1.26.634-1.797.623-.592-.012-1.73-.314-2.577-.572-1.038-.316-1.862-.484-1.79-1.022.037-.28.448-.566 1.232-.86Z"
        fill="currentColor"/>
</svg>