<svg viewBox="0 0 24 24" fill="none"
     xmlns="http://www.w3.org/2000/svg">
  <path
    d="M18.6678 12.8571C18.8677 12.4714 19.5758 11.3657 20.109 10.5429C21.7084 8.10857 22 7.59429 22 7.28571C22 7.04902 21.8135 6.85714 21.5835 6.85714H17.8348C17.6342 6.8579 17.4627 7.00559 17.4266 7.20857C17.2183 8.39143 14.5192 11.7857 14.0944 12C13.9194 12 13.6778 11.5543 13.6778 10.7143V7.09714C13.7241 6.81428 13.6514 6.52452 13.4779 6.3C13.1947 6 12.7698 6 11.5869 6C9.43762 6 8.67121 6.66 8.67121 7.28571C8.66196 7.39461 8.69705 7.50258 8.76813 7.58383C8.8392 7.66508 8.93986 7.71232 9.04608 7.71429C9.04608 7.71429 9.50426 8.02286 9.50426 9.85714C9.52781 10.5733 9.49158 11.2902 9.39596 12C8.33799 11.8029 6.87183 9.08571 6.17206 7.13143C6.1067 6.95591 5.93782 6.8447 5.75554 6.85714H2.42334C2.29856 6.85504 2.17945 6.91062 2.09876 7.00858C2.01808 7.10653 1.98434 7.23655 2.00682 7.36286C2.47332 9.95143 7.76319 18 11.1704 18H12.8365C13.7195 18 13.7861 17.0143 13.8361 16.3629C13.8861 15.7114 13.9278 15.4286 14.086 15.4286C14.6025 15.4286 15.6605 16.3714 16.3519 16.9886C17.0434 17.6057 17.4932 18 17.8348 18H19.9174C20.992 18 22 18 22 17.1429C22 16.8171 21.7251 16.44 20.1423 14.5714C19.6175 13.98 18.9094 13.1657 18.6678 12.8571Z"
    fill="currentColor"/>
</svg>
