<svg viewBox="0 0 40 40" fill="none" xmlns="http://www.w3.org/2000/svg">
  <path
    d="M14.824 34.078a1.667 1.667 0 1 0-2.981-1.49l-1.667 3.333a1.667 1.667 0 0 0 2.982 1.49l1.666-3.333ZM25.176 34.078a1.667 1.667 0 0 1 2.982-1.49l1.666 3.333a1.667 1.667 0 0 1-2.98 1.49l-1.668-3.333Z"
    fill="currentColor"/>
  <path fill-rule="evenodd" clip-rule="evenodd"
        d="M18.333 3.333a1.667 1.667 0 0 1 3.334 0V5H30a5 5 0 0 1 5 5v13.333a5 5 0 0 1-5 5H10a5 5 0 0 1-5-5V10a5 5 0 0 1 5-5h8.333V3.333Zm11.302 9.375a1.667 1.667 0 1 0-2.603-2.083l-5.712 7.14-3.729-2.485a1.667 1.667 0 0 0-2.103.208l-5 5a1.667 1.667 0 1 0 2.357 2.357l4.034-4.034 3.863 2.576c.72.48 1.686.33 2.226-.346l6.667-8.333Z"
        fill="currentColor"/>
</svg>