<svg viewBox="0 0 40 40" fill="none" xmlns="http://www.w3.org/2000/svg">
  <path
    d="M13.332 33.333c0-.92.746-1.666 1.667-1.666h10c.92 0 1.666.746 1.666 1.666V35a5 5 0 0 1-5 5h-3.333a5 5 0 0 1-5-5v-1.667ZM33.335 13.333c0 4.211-1.952 7.966-5 10.41V25A3.333 3.333 0 0 1 25 28.333h-3.333v-9.31l2.845-2.845a1.667 1.667 0 1 0-2.357-2.357l-2.155 2.155-2.155-2.155a1.667 1.667 0 1 0-2.357 2.357l2.846 2.846v9.31H15A3.333 3.333 0 0 1 11.668 25v-1.258a13.308 13.308 0 0 1-5-10.409C6.668 5.97 12.638 0 20.001 0c7.364 0 13.334 5.97 13.334 13.333Z"
    fill="currentColor"/>
</svg>