<svg viewBox="0 0 40 40" fill="none" xmlns="http://www.w3.org/2000/svg">
  <path
    d="M18.894 5.006c.579-1.341 2.481-1.341 3.06 0l3.633 8.42c.246.568.785.954 1.402 1.002l9.318.72c1.495.115 2.09 1.992.933 2.946l-7.008 5.786a1.667 1.667 0 0 0-.556 1.686l2.156 8.713c.355 1.433-1.19 2.586-2.463 1.837l-8.1-4.768a1.667 1.667 0 0 0-1.69 0l-8.1 4.768c-1.272.749-2.818-.404-2.464-1.837l2.157-8.714a1.667 1.667 0 0 0-.557-1.685l-7.007-5.786c-1.156-.954-.562-2.831.933-2.947l9.317-.72a1.667 1.667 0 0 0 1.402-1l3.634-8.42Z"
    fill="currentColor"/>
</svg>